<svg width="124" height="92" viewBox="0 0 124 92" fill="none" xmlns="http://www.w3.org/2000/svg">
<path d="M112 18.3467C112.526 18.2445 113.068 18.1904 113.624 18.1904C114.093 18.1904 114.552 18.2296 115 18.3027L115 38.249C114.486 41.1621 113.468 44.1063 112 47.0205L112 44.6621C113.387 41.4517 114.193 38.2414 114.354 35.1133C114.114 35.1338 113.87 35.1465 113.624 35.1465C113.068 35.1465 112.526 35.0912 112 34.9893L112 18.3467ZM100 55.9619C101.128 56.372 102.145 57.0141 102.992 57.8311C102.995 57.8282 102.997 57.8251 103 57.8223L103 70.0283C102.151 70.8488 101.132 71.4947 100 71.9053L100 55.9619ZM100 12.4326C101.043 12.9062 102.044 13.4178 103 13.9687L103 15.1289C102.049 14.5569 101.048 14.0244 100 13.5322L100 12.4326ZM88 69.7266C88.6648 69.3229 89.3196 68.9131 89.9639 68.4971C89.1199 67.1792 88.6289 65.6136 88.6289 63.9326C88.6289 61.6502 89.5327 59.5799 91 58.0557L91 69.8076C90.8449 69.6465 90.6938 69.4816 90.5518 69.3086C89.7184 69.8476 88.8668 70.3746 88 70.8926L88 69.7266ZM88 8.96679C88.6601 9.06986 89.3125 9.18102 89.9561 9.30566C90.3065 9.37355 90.6544 9.44532 91 9.51953L91 10.543C90.5923 10.4536 90.181 10.3676 89.7656 10.2871C89.1843 10.1745 88.5954 10.073 88 9.97851L88 8.96679ZM76 75.8076C77.015 75.3842 78.0155 74.9472 79 74.4951L79 75.5928C78.0144 76.0395 77.0149 76.4745 76 76.8926L76 75.8076ZM76 0.320309C76.3328 0.280619 76.6712 0.25782 77.0146 0.257809C77.6985 0.257809 78.3631 0.340354 79 0.493161L79 16.9795C78.3631 17.1323 77.6984 17.2139 77.0146 17.2139C76.6712 17.2139 76.3328 17.1911 76 17.1514L76 0.320309ZM64 79.8916C64.9972 79.626 65.9979 79.3435 67 79.04L67 80.084C65.9979 80.3838 64.9975 80.6642 64 80.9268L64 79.8916ZM64 9.52441C65.0054 9.34389 66.0057 9.18254 67 9.04004L67 10.0488C66.006 10.193 65.0056 10.3553 64 10.5381L64 9.52441ZM52 80.5049C52.1834 81.0381 52.3174 81.5946 52.3916 82.1699C53.2561 82.0617 54.1256 81.9374 55 81.7998L55 82.8125C54.1496 82.9447 53.3034 83.0642 52.4619 83.1689C52.4623 83.2005 52.4648 83.232 52.4648 83.2637C52.4648 84.2334 52.2998 85.1644 52 86.0322L52 80.5049ZM52 12.54C53.0018 12.216 54.0016 11.9087 55 11.6221L55 12.6641C54.002 12.954 53.0017 13.2629 52 13.5908L52 12.54ZM40 75.7812C40.9134 75.294 41.9257 74.969 43 74.8447L43 91.6836C41.926 91.5593 40.9132 91.2361 40 90.749L40 75.7812ZM40 17.3418C40.9841 16.8671 41.9845 16.407 43 15.9609L43 17.0518C41.9835 17.5039 40.9838 17.9723 40 18.4531L40 17.3418ZM28 80.9756C28.9754 81.2327 29.976 81.4629 31 81.666L31 82.6855C29.9786 82.4868 28.978 82.261 28 82.0088L28 80.9756ZM28 20.6504C28.9396 21.1723 29.7698 21.8673 30.4473 22.6924C30.6303 22.574 30.8154 22.4582 31 22.3408L31 32.6875C30.2446 33.8469 29.2141 34.8095 28 35.4834L28 20.6504ZM16 75.5557C16.9404 76.2315 17.9418 76.8622 19 77.4473L19 78.584C17.9485 78.025 16.9474 77.4215 16 76.7754L16 75.5557ZM16 24.9639C16.6097 23.4155 17.661 22.0909 19 21.1436L19 34.9902C18.6486 34.7414 18.316 34.4679 18.0068 34.1699C17.3088 34.9053 16.6403 35.6489 16 36.3975L16 34.877C16.4308 34.3934 16.8718 33.9112 17.3262 33.4336C16.7739 32.759 16.3249 31.9972 16 31.1729L16 24.9639ZM4 57.5537C4.52005 57.3278 5.06681 57.1517 5.63476 57.0332C5.73868 54.6446 6.20539 52.2193 7 49.791L7 53.8379C6.8162 54.8613 6.69662 55.8787 6.64453 56.8877C6.76238 56.8776 6.88089 56.8702 7 56.8643L7 73.8008C5.93737 73.7544 4.92606 73.5117 4 73.1094L4 57.5537Z" fill="black"/>
<path d="M115 13.2861C116.42 14.802 117.291 16.8384 117.291 19.0791C117.291 21.3197 116.42 23.3555 115 24.8711L115 13.2861ZM103 47.0391C103.928 46.6512 104.939 46.4255 106 46.3926L106 63.3369C104.939 63.304 103.928 63.0768 103 62.6885L103 47.0391ZM103 12.9072C103.853 12.1041 104.872 11.4757 106 11.0791L106 27.0781C104.872 26.6817 103.853 26.054 103 25.251L103 12.9072ZM91 67.8184C92.0287 67.1313 93.0285 66.4275 94 65.7109L94 66.9512C93.0276 67.6544 92.0265 68.342 91 69.0156L91 67.8184ZM91 9.5205C92.0228 9.74025 93.0233 9.9878 94 10.2627L94 11.3008C93.0261 11.0204 92.0254 10.7687 91 10.5439L91 9.5205ZM79 74.4961C80.0168 74.0293 81.0172 73.5482 82 73.0527L82 74.1689C81.0163 74.6581 80.0163 75.1342 79 75.5947L79 74.4961ZM79 8.23047C80.0124 8.24342 81.0128 8.27778 82 8.33398L82 9.33496C81.0134 9.27797 80.013 9.24356 79 9.23047L79 8.23047ZM67 79.0352C67.9982 78.7333 68.9986 78.4137 70 78.0742L70 79.1279C68.9986 79.4634 67.9984 79.7805 67 80.0791L67 79.0352ZM67 2.71582C68.1994 3.34977 69.2279 4.26235 70 5.36816L70 15.0605C69.2279 16.1664 68.1995 17.079 67 17.7129L67 2.71582ZM55 73.8379C55.9208 73.4953 56.9169 73.3066 57.957 73.3066C57.9714 73.3066 57.9857 73.3075 58 73.3076L58 90.2627C57.9857 90.2628 57.9714 90.2637 57.957 90.2637C56.917 90.2637 55.9208 90.0759 55 89.7334L55 73.8379ZM55 7.52929C55.5567 5.86187 56.6159 4.42494 58 3.39941L58 17.0283C56.6161 16.0024 55.5563 14.5655 55 12.8975L55 7.52929ZM43 82.7744C43.9891 82.773 44.9894 82.7521 46 82.709L46 83.71C44.9899 83.7525 43.9895 83.773 43 83.7744L43 82.7744ZM43 15.96C43.9859 15.5271 44.9858 15.1075 46 14.7031L46 15.7803C44.9854 16.1897 43.9852 16.6137 43 17.0518L43 15.96ZM31.2334 81.7129C32.1384 81.8882 33.0613 82.0395 34 82.1719L34 83.1826C32.9966 83.0436 32.0106 82.8816 31.0439 82.6943C31.0293 82.6915 31.0146 82.6884 31 82.6855L31 81.666C31.0777 81.6814 31.1554 81.6978 31.2334 81.7129ZM31 22.3359C31.9775 21.7145 32.9777 21.1069 34 20.5146L34 21.6738C32.9768 22.2758 31.9762 22.8922 31 23.5234L31 22.3359ZM19 67.8701C20.0483 69.2809 20.6689 71.0284 20.6689 72.9209C20.6689 74.6466 20.1513 76.2507 19.2656 77.5898C20.1401 78.0629 21.0524 78.505 22 78.916L22 80.001C20.9606 79.5639 19.9598 79.0895 19 78.5791L19 67.8701ZM19 29.8096C19.4129 30.0507 19.8042 30.3249 20.1689 30.6299C20.7633 30.0788 21.3743 29.5339 22 28.9941L22 30.3223C21.627 30.6524 21.2586 30.9832 20.8975 31.3174C21.3151 31.7596 21.6842 32.2476 22 32.7715L22 41.5068C21.2649 42.7256 20.2303 43.742 19 44.46L19 29.8096ZM7 62.1143C7.20137 63.146 7.4825 64.1624 7.8457 65.1602C7.89357 65.2917 7.9427 65.4226 7.99316 65.5527C8.61687 65.1969 9.29014 64.9179 10 64.7285L10 81.1133C8.8945 80.8187 7.8791 80.3053 7 79.624L7 66.2188C7.04649 66.1827 7.09142 66.1445 7.13867 66.1094C7.09081 65.9894 7.04606 65.8681 7 65.7471L7 62.1143ZM7 33.6562C7.65217 32.2095 8.69642 30.9779 10 30.0996L10 45.2158C8.52681 48.0938 7.51208 50.9867 7 53.835L7 49.79C7.64759 47.8116 8.51243 45.8309 9.58105 43.8682C8.47204 43.0187 7.58079 41.9011 7 40.6133L7 33.6562Z" fill="black"/>
<path d="M118 38.9111C119.711 40.462 120.787 42.7012 120.787 45.1924C120.787 47.684 119.712 49.9244 118 51.4756L118 38.9111ZM106 39.5264C106.825 38.609 107.847 37.8724 109 37.3838L109 52.9971C108.829 52.9246 108.661 52.8486 108.496 52.7656C107.915 53.5759 107.303 54.3823 106.656 55.1797C106.441 55.4446 106.222 55.7082 106 55.9717L106 54.3994C106.57 53.6909 107.111 52.9768 107.627 52.2607C107.027 51.8625 106.48 51.3891 106 50.8555L106 39.5264ZM106 6.7041C107.502 7.90619 108.586 9.60684 109 11.5566L109 15.0937C108.809 15.9907 108.476 16.8358 108.026 17.6035C108.361 17.9077 108.686 18.2187 109 18.5371L109 19.999C108.516 19.4627 108.004 18.9431 107.463 18.4443C107.039 19.0021 106.546 19.5038 106 19.9414L106 6.7041ZM94 65.7129C95.0334 64.951 96.0341 64.1736 97 63.3818L97 64.6689C96.0322 65.4444 95.0313 66.2047 94 66.9502L94 65.7129ZM94 8.13476C94.7953 7.10888 95.8216 6.27175 97 5.69824L97 20.9512C95.8204 20.3772 94.7957 19.5369 94 18.5098L94 8.13476ZM82 73.0508C83.019 72.5372 84.019 72.0082 85 71.4658L85 72.6064C84.0182 73.1414 83.0182 73.6628 82 74.1689L82 73.0508ZM82 8.333C83.0144 8.3908 84.0148 8.47123 85 8.57422L85 9.5791C84.0155 9.47448 83.0151 9.39268 82 9.33398L82 8.333ZM70 69.6523C70.672 69.481 71.3762 69.3896 72.1016 69.3896C72.405 69.3897 72.7048 69.4054 73 69.4365L73 86.2988C72.7048 86.3299 72.405 86.3467 72.1016 86.3467C71.3761 86.3467 70.672 86.2534 70 86.082L70 69.6523ZM70 8.66015C71.0077 8.55294 72.0081 8.46715 73 8.39941L73 9.40136C72.0084 9.46999 71.0081 9.55835 70 9.66699L70 8.66015ZM58 81.2734C58.9954 81.0803 59.9958 80.8689 61 80.6377L61 81.6641C59.996 81.8926 58.9956 82.1011 58 82.292L58 81.2734ZM58 10.8135C59.0033 10.5612 60.0038 10.3291 61 10.1143L61 11.1387C60.0039 11.3561 59.0035 11.5914 58 11.8467L58 10.8135ZM46 82.71C46.9906 82.6677 47.991 82.6054 49 82.5225L49 83.5264C47.9913 83.6082 46.991 83.6692 46 83.7109L46 82.71ZM46 6.16211C46.9045 5.83313 47.8812 5.65332 48.8994 5.65332C48.933 5.65332 48.9665 5.65488 49 5.65527L49 22.6074C48.9665 22.6078 48.933 22.6103 48.8994 22.6103C47.8809 22.6103 46.9047 22.4298 46 22.1006L46 6.16211ZM34 82.1729C34.9828 82.3116 35.9833 82.4264 37 82.5176L37 83.5215C35.984 83.4318 34.9836 83.3181 34 83.1816L34 82.1729ZM34 20.5156C34.9801 19.9479 35.9804 19.3943 37 18.8555L37 19.9883C35.9793 20.5355 34.9794 21.0986 34 21.6748L34 20.5156ZM22 70.3691C23.0911 70.5919 24.1053 71.0252 25 71.623L25 85.7285C24.1057 86.3266 23.0908 86.7575 22 86.9805L22 70.3691ZM22 28.9932C22.9641 28.1616 23.9642 27.3433 25 26.542L25 27.8145C23.9621 28.6349 22.9613 29.4708 22 30.3213L22 28.9932ZM10 69.4238C10.8554 70.7182 11.8589 71.9264 13 73.0439L13 82.998C12.2479 81.732 11.8145 80.2541 11.8145 78.6748C11.8146 77.1139 12.2375 75.6516 12.9736 74.3955C11.8707 73.3923 10.8769 72.3107 10 71.1543L10 69.4238ZM10 38.4336C10.8869 38.5715 11.729 38.8435 12.5029 39.2334C12.6659 39.0061 12.8318 38.7793 13 38.5527L13 54.1104C12.0944 54.6454 11.0812 55.0173 10 55.1846L10 38.4336ZM0.212889 46.8076C0.212961 45.533 0.495888 44.3248 0.999998 43.2402L0.999998 50.3799C0.494747 49.2945 0.212944 48.0838 0.212889 46.8076Z" fill="black"/>
<path d="M121 29.7764C122.423 31.2929 123.296 33.3316 123.296 35.5752C123.296 37.8188 122.423 39.8575 121 41.374L121 29.7764ZM109 50.2461C110.19 48.3932 111.193 46.5237 112 44.6543L112 47.0107C111.148 48.7042 110.145 50.3875 109 52.0488L109 50.2461ZM109 29.4092C109.853 28.6054 110.871 27.9773 112 27.5801L112 43.5703C110.871 43.173 109.853 42.5439 109 41.7402L109 29.4092ZM109 18.5391C110.138 19.6915 111.143 20.9358 112 22.2715L112 24.2549C111.187 22.7277 110.181 21.3074 109 19.998L109 18.5391ZM97 63.3789C98.0406 62.5261 99.0413 61.6574 100 60.7744L100 62.124C99.0383 62.986 98.0381 63.8344 97 64.666L97 63.3789ZM97 5.22363C97.8476 6.54336 98.3408 8.11211 98.3408 9.79687C98.3408 10.4317 98.2671 11.0495 98.1348 11.6445C98.7703 11.894 99.392 12.1585 100 12.4346L100 13.5312C99.307 13.2059 98.5933 12.8982 97.8603 12.6084C97.641 13.2322 97.3513 13.8228 97 14.3701L97 5.22363ZM85 63.3135C85.1507 63.3055 85.3024 63.3008 85.4551 63.3008C86.3418 63.3008 87.1968 63.437 88 63.6894L88 79.8682C87.1967 80.1205 86.3416 80.2568 85.4551 80.2568C85.3024 80.2568 85.1507 80.2521 85 80.2441L85 63.3135ZM85 2.85058C85.8898 2.22657 86.9045 1.76876 88 1.52343L88 18.0674C86.9045 17.8221 85.89 17.365 85 16.7412L85 2.85058ZM73 76.999C74.0137 76.6159 75.0139 76.2184 76 75.8066L76 76.8877C75.0134 77.2949 74.0133 77.688 73 78.0664L73 76.999ZM73 8.39941C74.0091 8.33058 75.0095 8.28227 76 8.2539L76 9.25488C75.0099 9.28362 74.0095 9.33259 73 9.40234L73 8.39941ZM61 80.6377C61.9964 80.4084 62.9968 80.1608 64 79.8936L64 80.9277C62.9969 81.1919 61.9966 81.4373 61 81.6641L61 80.6377ZM61 10.1143C62.0044 9.8977 63.0047 9.70033 64 9.52148L64 10.5381C63.0049 10.719 62.0046 10.9185 61 11.1377L61 10.1143ZM49 82.5215C49.992 82.4401 50.9923 82.3388 52 82.2178L52 83.2246C50.9926 83.3442 49.9924 83.445 49 83.5254L49 82.5215ZM49 13.5645C50.0007 13.2037 51.0009 12.8614 52 12.5381L52 13.5908C51.0244 13.9102 50.0468 14.2469 49.0693 14.6025C49.0461 14.611 49.0232 14.6204 49 14.6289L49 13.5645ZM37 76.0791C38.6132 77.6224 39.619 79.7947 39.6191 82.2031C39.6191 82.3686 39.6119 82.5332 39.6025 82.6963C39.7346 82.7027 39.8674 82.7072 40 82.7129L40 83.7139C39.8282 83.7067 39.6564 83.7009 39.4854 83.6924C39.1649 85.5 38.2712 87.1085 37 88.3262L37 76.0791ZM37 11.8682C38.0848 12.056 39.0984 12.4504 40 13.0088L40 27.4355C39.0984 27.9934 38.0845 28.3856 37 28.5732L37 11.8682ZM25 76.3564C25.8352 75.48 26.8564 74.7832 28 74.3271L28 90.0791C26.8558 89.6228 25.8354 88.9249 25 88.0479L25 76.3564ZM25 26.5449C25.97 25.7946 26.9699 25.0575 28 24.3369L28 25.5635C26.9683 26.299 25.968 27.0503 25 27.8154L25 26.5449ZM27.0645 20.2217C27.0645 18.8274 27.4036 17.5128 28 16.3525L28 24.0947C27.4025 22.9337 27.0645 21.6173 27.0645 20.2217ZM13 73.043C13.9146 73.9387 14.9168 74.7763 16 75.5547L16 76.7734C14.9287 76.0429 13.9263 75.2581 13 74.418L13 73.043ZM13 38.5537C13.4314 37.973 13.8784 37.3942 14.3437 36.8203C14.8735 36.1671 15.427 35.5196 16 34.876L16 36.3965C15.7008 36.7468 15.4063 37.0973 15.1201 37.4502C14.3662 38.3798 13.6597 39.3178 13 40.2607L13 38.5537ZM13 51.3838C14.0447 52.7926 14.6631 54.536 14.6631 56.4248C14.6631 58.3131 14.0442 60.0554 13 61.4639L13 51.3838ZM0.999998 49.7178C1.87929 49.0374 2.89466 48.5252 4 48.2314L4 64.6182C2.89467 64.3244 1.87929 63.8121 0.999999 63.1318L0.999998 49.7178Z" fill="black"/>
</svg>
